<?xml version="1.0" encoding="UTF-8"?>
<svg xmlns="http://www.w3.org/2000/svg" xmlns:xlink="http://www.w3.org/1999/xlink" width="32px" height="32px" viewBox="0 0 32 32" version="1.1">
<g id="surface1">
<path style=" stroke:none;fill-rule:nonzero;fill:rgb(0%,0%,0%);fill-opacity:1;" d="M 15.792969 8.300781 L 15.792969 6.339844 L 13.835938 6.339844 L 13.835938 8.300781 Z M 17.753906 10.257812 L 17.753906 8.300781 L 15.792969 8.300781 L 15.792969 10.257812 Z M 15.792969 12.21875 L 15.792969 10.257812 L 13.835938 10.257812 L 13.835938 12.21875 Z M 17.753906 14.175781 L 17.753906 12.21875 L 15.792969 12.21875 L 15.792969 14.175781 Z M 15.792969 6.339844 C 6.433594 23.535156 11.113281 14.9375 15.792969 6.339844 Z M 17.953125 16.855469 L 19.589844 22.195312 C 19.671875 22.472656 19.710938 22.738281 19.710938 22.992188 C 19.710938 23.839844 19.34375 24.542969 18.601562 25.097656 C 17.863281 25.652344 16.925781 25.929688 15.792969 25.929688 C 14.660156 25.929688 13.726562 25.652344 12.984375 25.097656 C 12.246094 24.542969 11.875 23.839844 11.875 22.992188 C 11.875 22.738281 11.917969 22.472656 11.996094 22.195312 C 12.210938 21.554688 12.824219 19.535156 13.835938 16.136719 L 13.835938 14.175781 L 15.792969 14.175781 L 15.792969 16.136719 L 17.003906 16.136719 C 17.226562 16.136719 17.425781 16.203125 17.601562 16.335938 C 17.773438 16.46875 17.890625 16.640625 17.953125 16.855469 Z M 15.792969 23.972656 C 16.335938 23.972656 16.796875 23.875 17.179688 23.679688 C 17.5625 23.488281 17.753906 23.257812 17.753906 22.992188 C 17.753906 22.726562 17.5625 22.496094 17.179688 22.304688 C 16.796875 22.109375 16.335938 22.011719 15.792969 22.011719 C 15.253906 22.011719 14.792969 22.109375 14.410156 22.304688 C 14.027344 22.496094 13.835938 22.726562 13.835938 22.992188 C 13.835938 23.257812 14.027344 23.488281 14.410156 23.679688 C 14.792969 23.875 15.253906 23.972656 15.792969 23.972656 Z M 17.464844 2.890625 C 17.128906 2.558594 16.472656 2.285156 16 2.285156 L 5.714844 2.285156 C 5.242188 2.285156 4.855469 2.671875 4.855469 3.144531 L 4.855469 28.855469 C 4.855469 29.328125 5.242188 29.714844 5.714844 29.714844 L 26.285156 29.714844 C 26.757812 29.714844 27.144531 29.328125 27.144531 28.855469 L 27.144531 13.429688 C 27.144531 12.957031 26.871094 12.296875 26.535156 11.964844 Z M 25.429688 28 L 6.570312 28 L 6.570312 4 L 15.976562 4 C 16.054688 4.015625 16.203125 4.074219 16.265625 4.121094 L 25.308594 13.160156 C 25.355469 13.226562 25.414062 13.375 25.429688 13.453125 Z M 26.285156 2.285156 L 21.144531 2.285156 C 20.671875 2.285156 20.558594 2.558594 20.890625 2.890625 L 26.535156 8.535156 C 26.871094 8.871094 27.144531 8.757812 27.144531 8.285156 L 27.144531 3.144531 C 27.144531 2.671875 26.757812 2.285156 26.285156 2.285156 Z M 26.285156 2.285156 "/>
</g>
</svg>
