<?xml version="1.0" encoding="UTF-8"?>
<svg xmlns="http://www.w3.org/2000/svg" xmlns:xlink="http://www.w3.org/1999/xlink" width="32px" height="32px" viewBox="0 0 32 32" version="1.1">
<g id="surface1">
<path style=" stroke:none;fill-rule:nonzero;fill:rgb(0%,0%,0%);fill-opacity:1;" d="M 20.28125 3.832031 C 19.96875 3.957031 19.726562 4.125 19.554688 4.351562 C 19.46875 4.460938 17.207031 9.417969 14.53125 15.355469 C 10.070312 25.261719 9.664062 26.1875 9.636719 26.550781 C 9.554688 27.726562 10.632812 28.539062 11.757812 28.15625 C 12.414062 27.929688 12.09375 28.574219 17.449219 16.679688 C 21.917969 6.761719 22.335938 5.8125 22.363281 5.449219 C 22.414062 4.757812 22.082031 4.179688 21.46875 3.898438 C 21.125 3.738281 20.601562 3.707031 20.28125 3.832031 Z M 20.28125 3.832031 "/>
<path style=" stroke:none;fill-rule:nonzero;fill:rgb(0%,0%,0%);fill-opacity:1;" d="M 6.78125 8.695312 C 6.460938 8.851562 0.429688 14.855469 0.199219 15.25 C 0.0546875 15.488281 0.03125 15.601562 0.03125 16 C 0.03125 16.332031 0.0703125 16.53125 0.148438 16.6875 C 0.210938 16.804688 1.65625 18.304688 3.367188 20.023438 C 6.773438 23.445312 6.761719 23.4375 7.476562 23.4375 C 8.175781 23.4375 8.824219 22.957031 9.007812 22.292969 C 9.09375 21.976562 9.042969 21.460938 8.90625 21.179688 C 8.851562 21.0625 7.6875 19.851562 6.324219 18.480469 L 3.84375 16 L 6.324219 13.511719 C 7.6875 12.148438 8.851562 10.9375 8.90625 10.820312 C 9.28125 10.074219 8.949219 9.117188 8.195312 8.730469 C 7.761719 8.519531 7.167969 8.5 6.78125 8.695312 Z M 6.78125 8.695312 "/>
<path style=" stroke:none;fill-rule:nonzero;fill:rgb(0%,0%,0%);fill-opacity:1;" d="M 24.125 9.117188 C 23.382812 9.363281 22.886719 10.050781 22.949219 10.769531 C 23 11.386719 23.101562 11.507812 25.6875 14.09375 L 28.125 16.53125 L 25.632812 19.03125 C 23.3125 21.355469 23.132812 21.554688 23.03125 21.867188 C 22.773438 22.65625 23.101562 23.445312 23.835938 23.832031 C 24.179688 24.011719 24.863281 24.019531 25.21875 23.851562 C 25.5625 23.6875 31.6875 17.5625 31.851562 17.21875 C 32.023438 16.851562 32.011719 16.179688 31.820312 15.8125 C 31.613281 15.414062 25.71875 9.511719 25.300781 9.28125 C 24.96875 9.101562 24.414062 9.023438 24.125 9.117188 Z M 24.125 9.117188 "/>
</g>
</svg>
