<?xml version="1.0" encoding="utf-8"?>
<!-- Generator: Adobe Illustrator 19.0.0, SVG Export Plug-In . SVG Version: 6.00 Build 0)  -->
<svg version="1.1" id="Layer_2" xmlns="http://www.w3.org/2000/svg" xmlns:xlink="http://www.w3.org/1999/xlink" x="0px" y="0px"
	 width="100px" height="100px" viewBox="-909 226 100 100" style="enable-background:new -909 226 100 100;" xml:space="preserve">
<path d="M-809.6,259l0-2.5h0v-10.3c0-1.4-1.1-2.5-2.5-2.5l-45.4-0.1l-6.9-7.7c-0.5-0.5-1.2-0.8-1.9-0.8H-906c-1.4,0-2.5,1.1-2.5,2.5
	v76.9c0,1.4,1.1,2.5,2.5,2.5h93.8c1.4,0,2.5-1.1,2.5-2.5l0.1-52.9h0V259z M-853,248.6l38.4,0.1v7.8h-31.4l-2.9-3.2L-853,248.6z
	 M-814.7,311.9h-88.8v-71.9h36.1l18.5,20.6c0.5,0.5,1.2,0.8,1.9,0.8h32.5L-814.7,311.9z"/>
</svg>
