<?xml version="1.0" encoding="UTF-8"?>
<svg xmlns="http://www.w3.org/2000/svg" xmlns:xlink="http://www.w3.org/1999/xlink" width="32px" height="32px" viewBox="0 0 32 32" version="1.1">
<g id="surface1">
<path style=" stroke:none;fill-rule:nonzero;fill:rgb(0%,0%,0%);fill-opacity:1;" d="M 16 8 C 18.199219 8 20 6.199219 20 4 C 20 1.800781 18.199219 0 16 0 C 13.800781 0 12 1.800781 12 4 C 12 6.199219 13.800781 8 16 8 Z M 16 12 C 13.800781 12 12 13.800781 12 16 C 12 18.199219 13.800781 20 16 20 C 18.199219 20 20 18.199219 20 16 C 20 13.800781 18.199219 12 16 12 Z M 16 24 C 13.800781 24 12 25.800781 12 28 C 12 30.199219 13.800781 32 16 32 C 18.199219 32 20 30.199219 20 28 C 20 25.800781 18.199219 24 16 24 Z M 16 24 "/>
</g>
</svg>
