<?xml version="1.0" encoding="UTF-8"?>
<svg xmlns="http://www.w3.org/2000/svg" xmlns:xlink="http://www.w3.org/1999/xlink" width="32px" height="32px" viewBox="0 0 32 32" version="1.1">
<g id="surface1">
<path style=" stroke:none;fill-rule:nonzero;fill:rgb(0%,0%,0%);fill-opacity:1;" d="M 29.332031 4 L 2.667969 4 C 1.929688 4 1.332031 4.597656 1.332031 5.332031 L 1.332031 26.667969 C 1.332031 27.402344 1.929688 28 2.667969 28 L 29.332031 28 C 30.070312 28 30.667969 27.402344 30.667969 26.667969 L 30.667969 5.332031 C 30.667969 4.597656 30.070312 4 29.332031 4 Z M 28 25.332031 L 4 25.332031 L 4 24.625 L 10.710938 19.023438 L 12.445312 20.328125 L 11.058594 21.722656 C 10.550781 22.246094 10.558594 23.078125 11.074219 23.59375 C 11.585938 24.105469 12.417969 24.113281 12.941406 23.609375 L 21.1875 15.363281 L 28 24.445312 Z M 28 20 L 22.398438 12.535156 C 22.167969 12.222656 21.8125 12.03125 21.429688 12.003906 C 21.042969 11.976562 20.664062 12.117188 20.390625 12.390625 L 14.351562 18.429688 L 11.464844 16.265625 C 10.972656 15.894531 10.289062 15.914062 9.8125 16.308594 L 4 21.152344 L 4 6.667969 L 28 6.667969 Z M 6.667969 12 C 6.667969 10.527344 7.859375 9.332031 9.332031 9.332031 C 10.804688 9.332031 12 10.527344 12 12 C 12 13.472656 10.804688 14.667969 9.332031 14.667969 C 7.859375 14.667969 6.667969 13.472656 6.667969 12 Z M 6.667969 12 "/>
</g>
</svg>
