<?xml version="1.0" encoding="UTF-8"?>
<svg xmlns="http://www.w3.org/2000/svg" xmlns:xlink="http://www.w3.org/1999/xlink" width="20px" height="20px" viewBox="0 0 20 20" version="1.1">
<g id="surface1">
<path style=" stroke:none;fill-rule:evenodd;fill:rgb(0%,0%,0%);fill-opacity:1;" d="M 10 3.332031 C 10.460938 3.332031 10.832031 3.707031 10.832031 4.167969 L 10.832031 9.167969 L 15.832031 9.167969 C 16.292969 9.167969 16.667969 9.539062 16.667969 10 C 16.667969 10.460938 16.292969 10.832031 15.832031 10.832031 L 10.832031 10.832031 L 10.832031 15.832031 C 10.832031 16.292969 10.460938 16.667969 10 16.667969 C 9.539062 16.667969 9.167969 16.292969 9.167969 15.832031 L 9.167969 10.832031 L 4.167969 10.832031 C 3.707031 10.832031 3.332031 10.460938 3.332031 10 C 3.332031 9.539062 3.707031 9.167969 4.167969 9.167969 L 9.167969 9.167969 L 9.167969 4.167969 C 9.167969 3.707031 9.539062 3.332031 10 3.332031 Z M 10 3.332031 "/>
</g>
</svg>
