<?xml version="1.0" encoding="UTF-8"?>
<svg xmlns="http://www.w3.org/2000/svg" xmlns:xlink="http://www.w3.org/1999/xlink" width="32px" height="32px" viewBox="0 0 32 32" version="1.1">
<g id="surface1">
<path style=" stroke:none;fill-rule:nonzero;fill:rgb(0%,0%,0%);fill-opacity:1;" d="M 29.125 6.855469 L 19.363281 6.855469 L 19.363281 10.5 C 19.949219 10.050781 20.65625 9.828125 21.480469 9.828125 L 21.480469 13.367188 L 24.996094 13.367188 C 24.976562 14.359375 24.636719 15.199219 23.964844 15.875 C 23.296875 16.550781 22.460938 16.898438 21.464844 16.921875 C 20.695312 16.898438 19.992188 16.664062 19.375 16.21875 L 19.375 18.648438 L 27.054688 18.648438 L 27.054688 19.84375 L 19.371094 19.84375 L 19.371094 21.324219 L 27.046875 21.324219 L 27.046875 22.5 L 19.367188 22.5 L 19.367188 25.175781 L 29.132812 25.175781 C 29.527344 25.175781 29.714844 24.96875 29.714844 24.5625 L 29.714844 7.441406 C 29.714844 7.050781 29.527344 6.855469 29.132812 6.855469 Z M 22.035156 12.785156 L 22.035156 9.214844 C 23.027344 9.238281 23.863281 9.582031 24.535156 10.253906 C 25.203125 10.925781 25.554688 11.769531 25.570312 12.785156 Z M 11.722656 12.84375 C 11.660156 12.613281 11.5625 12.433594 11.421875 12.304688 C 11.285156 12.175781 11.097656 12.082031 10.867188 12.023438 C 10.613281 11.953125 10.347656 11.921875 10.078125 11.921875 L 9.257812 11.9375 L 9.257812 15.363281 L 9.285156 15.363281 C 9.585938 15.382812 9.898438 15.382812 10.230469 15.363281 C 10.554688 15.347656 10.863281 15.261719 11.152344 15.105469 C 11.511719 14.847656 11.726562 14.507812 11.796875 14.0625 C 11.863281 13.613281 11.839844 13.1875 11.722656 12.792969 Z M 2.285156 5.78125 L 2.285156 26.292969 L 17.929688 28.996094 L 17.929688 3.003906 Z M 13.957031 15.023438 C 13.527344 16.015625 12.890625 16.652344 12.03125 16.925781 C 11.175781 17.199219 10.253906 17.304688 9.257812 17.246094 L 9.257812 21.15625 L 7.199219 20.917969 L 7.199219 10.171875 L 10.464844 10.003906 C 11.070312 9.964844 11.671875 10.03125 12.257812 10.207031 C 12.84375 10.382812 13.308594 10.734375 13.652344 11.261719 C 13.996094 11.789062 14.191406 12.398438 14.238281 13.097656 C 14.277344 13.792969 14.1875 14.433594 13.957031 15.023438 Z M 13.957031 15.023438 "/>
</g>
</svg>
