<?xml version="1.0" encoding="UTF-8"?>
<svg xmlns="http://www.w3.org/2000/svg" xmlns:xlink="http://www.w3.org/1999/xlink" width="30px" height="30px" viewBox="0 0 30 30" version="1.1">
<g id="surface1">
<path style=" stroke:none;fill-rule:nonzero;fill:rgb(0%,0%,0%);fill-opacity:1;" d="M 15 0.300781 C 6.882812 0.300781 0.300781 6.882812 0.300781 15 C 0.300781 23.117188 6.882812 29.699219 15 29.699219 C 23.117188 29.699219 29.699219 23.117188 29.699219 15 C 29.699219 6.882812 23.117188 0.300781 15 0.300781 Z M 15 4.695312 C 17.683594 4.695312 19.863281 6.871094 19.863281 9.558594 C 19.863281 12.242188 17.683594 14.421875 15 14.421875 C 12.316406 14.421875 10.140625 12.242188 10.140625 9.558594 C 10.140625 6.871094 12.316406 4.695312 15 4.695312 Z M 14.996094 25.855469 C 12.316406 25.855469 9.863281 24.882812 7.972656 23.265625 C 7.507812 22.871094 7.246094 22.296875 7.246094 21.691406 C 7.246094 18.964844 9.449219 16.789062 12.171875 16.789062 L 17.828125 16.789062 C 20.554688 16.789062 22.75 18.964844 22.75 21.691406 C 22.75 22.296875 22.484375 22.871094 22.023438 23.265625 C 20.128906 24.878906 17.675781 25.855469 14.996094 25.855469 Z M 14.996094 25.855469 "/>
</g>
</svg>
