<?xml version="1.0" encoding="UTF-8"?>
<svg xmlns="http://www.w3.org/2000/svg" xmlns:xlink="http://www.w3.org/1999/xlink" width="32px" height="32px" viewBox="0 0 32 32" version="1.1">
<g id="surface1">
<path style=" stroke:none;fill-rule:nonzero;fill:rgb(0%,0%,0%);fill-opacity:1;" d="M 3.8125 3.835938 L 20.570312 1.441406 C 20.761719 1.414062 20.957031 1.472656 21.101562 1.597656 C 21.25 1.726562 21.332031 1.910156 21.332031 2.101562 L 21.332031 29.898438 C 21.332031 30.089844 21.25 30.273438 21.105469 30.402344 C 20.957031 30.527344 20.765625 30.585938 20.574219 30.558594 L 3.8125 28.164062 C 3.152344 28.070312 2.664062 27.507812 2.664062 26.84375 L 2.664062 5.15625 C 2.664062 4.492188 3.152344 3.929688 3.8125 3.835938 Z M 22.667969 4 L 28 4 C 28.738281 4 29.332031 4.597656 29.332031 5.332031 L 29.332031 26.667969 C 29.332031 27.402344 28.738281 28 28 28 L 22.667969 28 Z M 13.601562 16 L 17.332031 10.667969 L 14.132812 10.667969 L 12 13.714844 L 9.867188 10.667969 L 6.667969 10.667969 L 10.398438 16 L 6.667969 21.332031 L 9.867188 21.332031 L 12 18.285156 L 14.132812 21.332031 L 17.332031 21.332031 Z M 13.601562 16 "/>
</g>
</svg>
