<?xml version="1.0" encoding="UTF-8"?>
<svg xmlns="http://www.w3.org/2000/svg" xmlns:xlink="http://www.w3.org/1999/xlink" width="32px" height="32px" viewBox="0 0 32 32" version="1.1">
<g id="surface1">
<path style=" stroke:none;fill-rule:nonzero;fill:rgb(0%,0%,0%);fill-opacity:1;" d="M 26 0 L 6 0 C 3.789062 0 2 1.789062 2 4 L 2 28 C 2 30.210938 3.789062 32 6 32 L 26 32 C 28.210938 32 30 30.210938 30 28 L 30 4 C 30 1.789062 28.210938 0 26 0 Z M 28 28 C 28 29.101562 27.101562 30 26 30 L 6 30 C 4.898438 30 4 29.101562 4 28 L 4 4 C 4 2.898438 4.898438 2 6 2 L 26 2 C 27.101562 2 28 2.898438 28 4 Z M 8 8 L 24 8 L 24 6 L 8 6 Z M 8 12 L 24 12 L 24 10 L 8 10 Z M 8 16 L 24 16 L 24 14 L 8 14 Z M 8 20 L 16 20 L 16 18 L 8 18 Z M 8 20 "/>
</g>
</svg>
