<?xml version="1.0" encoding="UTF-8"?>
<svg xmlns="http://www.w3.org/2000/svg" xmlns:xlink="http://www.w3.org/1999/xlink" width="30px" height="30px" viewBox="0 0 30 30" version="1.1">
<g id="surface1">
<path style=" stroke:none;fill-rule:nonzero;fill:rgb(0%,0%,0%);fill-opacity:1;" d="M 28.644531 3.074219 L 17.714844 3.074219 L 17.714844 0.347656 L 15.675781 0.347656 L 0 3.078125 L 0 26.925781 L 15.582031 29.652344 L 17.714844 29.652344 L 17.714844 26.9375 L 27.941406 26.9375 C 28.523438 26.910156 29.167969 26.953125 29.664062 26.601562 C 30.0625 25.988281 29.960938 25.226562 29.996094 24.539062 L 29.996094 4.394531 C 30.066406 3.617188 29.421875 2.996094 28.644531 3.074219 Z M 11.367188 19.632812 C 10.800781 19.925781 9.945312 19.617188 9.273438 19.664062 C 8.820312 17.410156 8.289062 15.167969 7.886719 12.902344 C 7.488281 15.101562 6.96875 17.28125 6.511719 19.472656 C 5.859375 19.4375 5.199219 19.394531 4.542969 19.351562 C 3.976562 16.351562 3.3125 13.375 2.785156 10.367188 C 3.367188 10.339844 3.953125 10.316406 4.535156 10.296875 C 4.886719 12.46875 5.285156 14.628906 5.59375 16.800781 C 6.074219 14.574219 6.5625 12.34375 7.039062 10.117188 C 7.6875 10.078125 8.335938 10.050781 8.984375 10.019531 C 9.4375 12.316406 9.898438 14.613281 10.390625 16.90625 C 10.773438 14.539062 11.199219 12.183594 11.613281 9.820312 C 12.296875 9.796875 12.976562 9.757812 13.65625 9.71875 C 12.882812 13.019531 12.210938 16.347656 11.367188 19.632812 Z M 28.371094 25.320312 L 17.714844 25.320312 L 17.714844 23.179688 L 26.574219 23.179688 L 26.574219 21.816406 L 17.714844 21.816406 L 17.714844 20.113281 L 26.574219 20.113281 L 26.574219 18.75 L 17.714844 18.75 L 17.714844 17.042969 L 26.574219 17.042969 L 26.574219 15.679688 L 17.714844 15.679688 L 17.714844 13.976562 L 26.574219 13.976562 L 26.574219 12.613281 L 17.714844 12.613281 L 17.714844 10.910156 L 26.574219 10.910156 L 26.574219 9.546875 L 17.714844 9.546875 L 17.714844 7.84375 L 26.574219 7.84375 L 26.574219 6.480469 L 17.714844 6.480469 L 17.714844 4.679688 L 28.371094 4.679688 Z M 28.371094 25.320312 "/>
</g>
</svg>
